<svg xmlns="http://www.w3.org/2000/svg" width="130" height="181.034" viewBox="0 0 130 181.034">
  <g id="Group_48" data-name="Group 48" transform="translate(-4546.672 -1024.407)">
    <g id="Group_46" data-name="Group 46" transform="translate(4546.672 1024.407)">
      <g id="Group_45" data-name="Group 45" transform="translate(0)">
        <g id="Group_44" data-name="Group 44">
          <path id="Path_68" data-name="Path 68" d="M5029.4,1151.729h0c0-.216,0-.311,0-.333C5029.4,1151.436,5029.4,1151.729,5029.4,1151.729Z" transform="translate(-4899.941 -1117.34)" fill="#d9ffff"/>
          <path id="Path_69" data-name="Path 69" d="M5029.4,1151.729h0c0-.216,0-.311,0-.333C5029.4,1151.436,5029.4,1151.729,5029.4,1151.729Z" transform="translate(-4899.941 -1117.34)" fill="#d9ffff"/>
          <path id="Path_70" data-name="Path 70" d="M4546.676,1157.045s0-.293,0-.333c0,.022,0,.117,0,.333Z" transform="translate(-4546.672 -1121.231)" fill="#d9ffff"/>
          <path id="Path_71" data-name="Path 71" d="M4546.676,1157.045s0-.293,0-.333c0,.022,0,.117,0,.333Z" transform="translate(-4546.672 -1121.231)" fill="#d9ffff"/>
          <path id="Path_72" data-name="Path 72" d="M4611.127,1024.407c15.193,15.987,39.353,29.012,65.15,34.46.019,1.712.124,11.2.61,54.931.648,58.337-54.94,87.211-63.57,91.643-8.416-3.789-65.085-31.882-65.733-90.219-.486-43.731-.591-53.219-.61-54.931C4572.644,1054.276,4596.293,1040.724,4611.127,1024.407Z" transform="translate(-4546.893 -1024.407)" fill="#fff"/>
        </g>
      </g>
      <path id="Path_73" data-name="Path 73" d="M4688.681,1093.212c-22.544-5.632-43.082-16.1-57.944-29.493-.041.039-.086.077-.128.116-14.551,13.662-34.8,24.537-57.146,30.645l.549,49.428c.251,22.616,9.6,42.935,27.775,60.394a128.409,128.409,0,0,0,29.892,21.225c.293.149.59.3.86.436a128.323,128.323,0,0,0,30.264-22.333c17.788-17.855,26.679-38.375,26.427-60.991Z" transform="translate(-4566.278 -1053.176)" fill="#006aff"/>
    </g>
    <g id="Group_47" data-name="Group 47" transform="translate(4585.323 1079.528)">
      <path id="Path_74" data-name="Path 74" d="M4690.8,1329.513l.254,38.292c.028,4.263,52.329,3.92,52.3-.343l-.253-38.292Zm19.786,14.326a6.461,6.461,0,1,1,9.146,5.8l.072,10.878a2.646,2.646,0,1,1-5.292.035l-.072-10.853A6.413,6.413,0,0,1,4710.583,1343.839Z" transform="translate(-4690.798 -1302.561)" fill="#fff"/>
      <path id="Path_75" data-name="Path 75" d="M4707.753,1254.141l5.294-.035-.017-2.578a16.277,16.277,0,0,1,32.553-.213l.017,2.578,5.294-.035-.017-2.578a21.571,21.571,0,0,0-43.142.283Z" transform="translate(-4703.193 -1229.948)" fill="#fff"/>
    </g>
  </g>
</svg>
