<svg xmlns="http://www.w3.org/2000/svg" width="130.045" height="100.179" viewBox="0 0 130.045 100.179">
  <g id="Group_119" data-name="Group 119" transform="translate(0 0)">
    <circle id="Ellipse_10" data-name="Ellipse 10" cx="38.5" cy="38.5" r="38.5" transform="translate(53.045 22.893)" fill="#ffe600"/>
    <path id="Heading" d="M16.158,3.254a18.638,18.638,0,0,1-7.122-1.29A11.61,11.61,0,0,1,4-1.855a10.434,10.434,0,0,1-1.987-6.09h9.393A4.558,4.558,0,0,0,12.8-4.874a4.48,4.48,0,0,0,3.1,1.058,4.843,4.843,0,0,0,3.1-.9,3.021,3.021,0,0,0,1.135-2.5,2.963,2.963,0,0,0-.9-2.219,7.286,7.286,0,0,0-2.219-1.445,35.7,35.7,0,0,0-3.742-1.29,40.742,40.742,0,0,1-5.729-2.168,10.585,10.585,0,0,1-3.819-3.2,8.916,8.916,0,0,1-1.6-5.522A9.5,9.5,0,0,1,5.784-30.99a15.058,15.058,0,0,1,9.548-2.864q5.987,0,9.651,2.864a10.254,10.254,0,0,1,3.923,7.974H19.358a3.734,3.734,0,0,0-1.29-2.761,4.545,4.545,0,0,0-3.045-1.006,3.8,3.8,0,0,0-2.581.852,3.071,3.071,0,0,0-.981,2.452,3.039,3.039,0,0,0,1.652,2.735,27.074,27.074,0,0,0,5.161,2.116,47.731,47.731,0,0,1,5.7,2.271A10.857,10.857,0,0,1,27.77-13.21a8.428,8.428,0,0,1,1.6,5.316A10.432,10.432,0,0,1,27.8-2.268a11.025,11.025,0,0,1-4.568,4.026A15.637,15.637,0,0,1,16.158,3.254ZM43.615-21.829a9.581,9.581,0,0,1,3.561-3.252,10.932,10.932,0,0,1,5.316-1.239,11.925,11.925,0,0,1,6.452,1.806,12.512,12.512,0,0,1,4.568,5.161,17.212,17.212,0,0,1,1.677,7.793,17.376,17.376,0,0,1-1.677,7.819,12.661,12.661,0,0,1-4.568,5.213,11.8,11.8,0,0,1-6.452,1.832A10.971,10.971,0,0,1,47.2,2.067a9.7,9.7,0,0,1-3.587-3.2V16.622H34.79V-25.906h8.826ZM56.209-11.558a7.124,7.124,0,0,0-1.832-5.187,6.051,6.051,0,0,0-4.516-1.884,5.953,5.953,0,0,0-4.464,1.91,7.216,7.216,0,0,0-1.832,5.213A7.216,7.216,0,0,0,45.4-6.294a5.953,5.953,0,0,0,4.464,1.91,6,6,0,0,0,4.49-1.935A7.248,7.248,0,0,0,56.209-11.558ZM74.273-28.9a5.349,5.349,0,0,1-3.793-1.368,4.432,4.432,0,0,1-1.471-3.381,4.49,4.49,0,0,1,1.471-3.432,5.349,5.349,0,0,1,3.793-1.368,5.279,5.279,0,0,1,3.742,1.368,4.49,4.49,0,0,1,1.471,3.432,4.432,4.432,0,0,1-1.471,3.381A5.279,5.279,0,0,1,74.273-28.9Zm4.387,2.993v28.8H69.834v-28.8ZM12.235,33.654a16.115,16.115,0,0,1,1.832-7.845,12.726,12.726,0,0,1,5.11-5.161,15.3,15.3,0,0,1,7.51-1.806,14.278,14.278,0,0,1,9.058,2.839,13.393,13.393,0,0,1,4.774,8H31.125a4.521,4.521,0,0,0-4.593-3.3,4.63,4.63,0,0,0-3.871,1.884,8.715,8.715,0,0,0-1.445,5.393,8.715,8.715,0,0,0,1.445,5.393,4.63,4.63,0,0,0,3.871,1.884,4.521,4.521,0,0,0,4.593-3.3h9.393a13.521,13.521,0,0,1-4.8,7.948,14.133,14.133,0,0,1-9.032,2.89,15.3,15.3,0,0,1-7.51-1.806,12.726,12.726,0,0,1-5.11-5.161A16.115,16.115,0,0,1,12.235,33.654Zm62.4-14.4L56.57,61.731h-9.5L53.68,47.073,41.964,19.254h9.858L58.48,37.267l6.606-18.013Z" transform="translate(-2.016 38.448)" fill="#f70"/>
  </g>
</svg>
